<?xml version="1.0" standalone="no"?>
<!DOCTYPE svg PUBLIC "-//W3C//DTD SVG 20010904//EN"
 "http://www.w3.org/TR/2001/REC-SVG-20010904/DTD/svg10.dtd">
<svg version="1.0" xmlns="http://www.w3.org/2000/svg"
 width="700.000000pt" height="700.000000pt" viewBox="0 0 700.000000 700.000000"
 preserveAspectRatio="xMidYMid meet">
<metadata>
Created by potrace 1.14, written by Peter Selinger 2001-2017
</metadata>
<g transform="translate(0.000000,700.000000) scale(0.100000,-0.100000)"
fill="#000000" stroke="none">
<path d="M3278 6995 c-1 -1 -42 -5 -89 -9 -47 -4 -95 -8 -105 -10 -10 -2 -41
-7 -69 -10 -428 -56 -875 -210 -1270 -439 -103 -60 -265 -165 -315 -204 -8 -6
-51 -40 -95 -74 -353 -275 -673 -651 -897 -1054 -48 -86 -148 -289 -148 -301
0 -2 -11 -27 -24 -56 -60 -133 -155 -432 -181 -569 -3 -13 -11 -58 -20 -99
-29 -147 -36 -200 -52 -370 -15 -164 -8 -592 12 -711 2 -13 6 -46 9 -74 9 -78
22 -152 51 -285 21 -96 91 -339 114 -395 5 -11 25 -65 46 -120 63 -166 249
-531 312 -610 4 -6 34 -49 65 -95 171 -256 431 -533 712 -758 89 -72 367 -262
382 -262 4 0 15 -6 23 -14 26 -22 298 -158 411 -205 267 -111 589 -200 859
-237 25 -3 57 -8 71 -10 163 -25 682 -25 842 1 13 2 46 7 73 10 72 10 86 12
120 19 17 3 44 8 60 11 194 37 411 101 622 184 130 52 418 192 473 231 15 11
33 20 39 20 6 0 11 5 11 10 0 6 5 10 10 10 15 0 220 141 330 227 152 118 324
280 450 422 36 41 70 79 76 85 6 6 48 61 94 121 150 197 277 405 383 628 26
53 47 99 47 102 0 2 11 28 24 57 57 127 151 421 182 573 17 81 54 301 59 350
4 33 9 71 11 85 9 47 11 525 3 605 -15 165 -21 220 -24 225 -2 3 -6 30 -10 60
-4 30 -22 123 -40 205 -53 232 -102 385 -197 610 -387 911 -1160 1625 -2103
1943 -168 57 -420 119 -555 137 -19 3 -46 7 -60 10 -13 2 -52 7 -86 11 -33 3
-74 8 -90 10 -32 5 -540 14 -546 9z m-954 -1353 c93 -55 262 -216 319 -304
148 -227 174 -430 81 -637 -13 -29 -24 -57 -24 -62 0 -6 83 -106 145 -175 6
-6 33 -37 60 -69 130 -152 389 -452 404 -467 9 -9 21 -23 26 -30 6 -7 29 -35
52 -61 l42 -49 -22 -23 c-206 -211 -370 -375 -378 -375 -5 0 -9 3 -9 8 0 4
-19 27 -43 53 -23 25 -73 80 -112 123 -38 43 -81 91 -95 106 -14 15 -41 45
-60 66 -19 22 -77 86 -129 144 -52 58 -127 141 -166 185 -40 44 -83 92 -96
108 -20 22 -35 28 -82 33 -283 26 -568 267 -700 591 -68 168 -86 330 -53 490
16 76 82 183 113 183 31 0 59 -41 141 -210 50 -102 83 -157 112 -185 37 -36
45 -40 90 -38 73 2 182 38 214 70 67 67 73 121 30 303 -14 63 -30 131 -33 150
-9 43 -3 100 12 118 17 22 74 5 161 -46z m3322 -68 c2 -109 -104 -329 -234
-483 -60 -71 -94 -90 -147 -86 -129 10 -263 165 -234 269 10 38 108 131 192
182 23 14 58 37 77 50 81 54 255 115 315 110 28 -2 30 -5 31 -42z m-626 -434
c7 -14 38 -50 69 -81 58 -56 124 -89 180 -89 23 0 9 -17 -99 -121 -69 -67
-209 -203 -311 -303 -294 -287 -281 -276 -331 -276 -134 0 -279 156 -235 252
6 15 125 143 262 284 138 141 291 299 340 350 l90 94 11 -43 c6 -23 16 -53 24
-67z m-780 -696 c0 -29 39 -91 84 -132 47 -44 108 -76 166 -87 l34 -7 -119
-116 c-66 -63 -243 -234 -394 -381 -290 -282 -302 -294 -764 -745 -163 -158
-334 -325 -380 -370 -47 -44 -223 -217 -393 -383 -538 -526 -653 -636 -744
-713 -131 -112 -232 -175 -298 -186 -54 -8 -87 22 -79 72 16 98 133 258 361
493 56 57 133 136 171 175 521 535 654 672 734 754 77 80 415 427 776 797 444
456 671 689 743 764 82 85 102 98 102 65z m-340 -1200 c58 -69 114 -135 125
-147 11 -12 47 -53 80 -92 33 -38 62 -72 65 -75 3 -3 32 -36 65 -75 33 -38 62
-72 65 -75 3 -3 61 -70 130 -150 68 -80 140 -163 159 -186 67 -76 96 -109 151
-174 62 -74 94 -110 130 -150 97 -108 310 -359 332 -392 91 -134 47 -309 -98
-394 -107 -63 -195 -36 -314 96 -91 101 -86 95 -134 150 -21 25 -62 70 -90
100 -28 30 -69 75 -90 100 -32 37 -81 91 -211 234 -5 6 -66 74 -135 151 -68
77 -127 142 -130 145 -3 3 -64 70 -135 150 -71 80 -132 147 -135 150 -3 3 -41
46 -85 95 -84 95 -112 126 -194 215 -28 30 -51 59 -51 63 0 9 382 387 390 386
3 0 52 -57 110 -125z"/>
<path d="M4945 1714 c-97 -40 -128 -162 -62 -238 77 -88 197 -73 248 30 58
120 -65 258 -186 208z"/>
</g>
</svg>
