<?xml version="1.0" encoding="UTF-8" standalone="no"?>
<!-- Created with Inkscape (http://www.inkscape.org/) -->

<svg
   width="144.72458mm"
   height="144.72458mm"
   viewBox="0 0 144.72458 144.72458"
   version="1.1"
   id="svg5"
   xml:space="preserve"
   inkscape:version="1.2 (dc2aedaf03, 2022-05-15)"
   sodipodi:docname="favicon.svg"
   inkscape:export-filename="favicon.png"
   inkscape:export-xdpi="33.700001"
   inkscape:export-ydpi="33.700001"
   xmlns:inkscape="http://www.inkscape.org/namespaces/inkscape"
   xmlns:sodipodi="http://sodipodi.sourceforge.net/DTD/sodipodi-0.dtd"
   xmlns="http://www.w3.org/2000/svg"
   xmlns:svg="http://www.w3.org/2000/svg"><sodipodi:namedview
     id="namedview7"
     pagecolor="#ffffff"
     bordercolor="#666666"
     borderopacity="1.0"
     inkscape:showpageshadow="2"
     inkscape:pageopacity="0.0"
     inkscape:pagecheckerboard="0"
     inkscape:deskcolor="#d1d1d1"
     inkscape:document-units="mm"
     showgrid="false"
     showguides="true"
     inkscape:zoom="0.84096521"
     inkscape:cx="86.210463"
     inkscape:cy="283.00814"
     inkscape:window-width="1920"
     inkscape:window-height="1046"
     inkscape:window-x="-11"
     inkscape:window-y="-11"
     inkscape:window-maximized="1"
     inkscape:current-layer="layer1" /><defs
     id="defs2" /><g
     inkscape:label="Layer 1"
     inkscape:groupmode="layer"
     id="layer1"
     transform="translate(0,-27.68644)"><rect
       style="display:none;fill:#cccccc;stroke:none;stroke-width:0.4;stroke-dasharray:0.634997, 0.634997"
       id="rect1327"
       width="144.72458"
       height="144.72458"
       x="-9.5367432e-07"
       y="27.68644"
       inkscape:label="Background" /><circle
       style="fill:#ffffff;stroke:none;stroke-width:1.32292;stroke-dasharray:none;stroke-dashoffset:0;stroke-opacity:1"
       id="path9624"
       cx="72.362289"
       cy="100.04873"
       r="72.362289" /><g
       id="g9610"
       inkscape:label="Icon"
       transform="matrix(0.85474458,0,0,0.85474458,10.511014,14.53262)"><g
         id="g9602"
         inkscape:label="Wrench"><path
           id="path8550"
           style="font-variation-settings:normal;vector-effect:none;fill:#808080;fill-opacity:1;stroke:none;stroke-width:0.832289;stroke-linecap:butt;stroke-linejoin:miter;stroke-miterlimit:4;stroke-dasharray:none;stroke-dashoffset:0;stroke-opacity:1;-inkscape-stroke:none;stop-color:#000000"
           d="m 102.05104,148.41738 2.22983,2.54145 c 2.12683,2.42487 5.44307,3.50541 8.4801,0.25631 3.03706,-3.24913 2.1651,-6.94459 0.0382,-9.36945 L 110.56989,139.30373 52.843709,72.487649 C 60.964713,59.246954 43.401971,46.198821 40.444892,46.879294 c -2.652638,0.457636 1.77951,9.56848 0.63588,12.130908 -1.143625,2.562421 -1.937511,2.887184 -6.295785,3.721027 -4.358291,0.83385 -6.502301,-12.541105 -8.978704,-10.490292 -7.716735,9.095274 2.42687,30.346954 17.353364,30.606874 z m 6.50347,-5.41672 c 2.02084,1.4e-4 3.65903,1.66471 3.65921,3.71812 1e-4,2.05361 -1.63818,3.71849 -3.65921,3.71863 -2.02103,-1.4e-4 -3.65931,-1.66502 -3.65921,-3.71863 1.8e-4,-2.05341 1.63837,-3.71798 3.65921,-3.71812 z"
           sodipodi:nodetypes="ccscccczzsccccccc"
           inkscape:label="Grey" /></g><g
         id="g843"
         inkscape:label="Brush"
         transform="matrix(-1.4230884,-0.38131538,0.38131538,-1.4230884,153.2994,271.35586)"><path
           style="font-variation-settings:normal;display:inline;opacity:1;vector-effect:none;fill:#deaa87;fill-opacity:1;stroke:none;stroke-width:0.264583;stroke-linecap:butt;stroke-linejoin:miter;stroke-miterlimit:4;stroke-dasharray:none;stroke-dashoffset:0;stroke-opacity:1;-inkscape-stroke:none;stop-color:#000000;stop-opacity:1"
           d="m 74.668289,118.49161 c 1.931143,-3.4293 -3.974632,-5.66111 -5.544592,-3.20117 L 99.641455,64.00761 c 3.192545,-5.529676 6.501985,-10.216555 8.139485,-9.271147 1.63749,0.945413 -0.76674,6.154912 -3.95931,11.684575 z"
           id="path372"
           sodipodi:nodetypes="cccccc"
           inkscape:label="Light Brown" /><path
           style="font-variation-settings:normal;display:inline;vector-effect:none;fill:#e3dbdb;fill-opacity:1;stroke:none;stroke-width:0.264583;stroke-linecap:butt;stroke-linejoin:miter;stroke-miterlimit:4;stroke-dasharray:none;stroke-dashoffset:0;stroke-opacity:1;-inkscape-stroke:none;stop-color:#000000"
           d="m 66.161665,133.67962 c 1.822921,-3.15739 -4.260056,-6.33659 -5.983592,-3.35134 l 8.945623,-15.03784 c 1.56996,-2.45994 7.47574,-0.22813 5.544592,3.20117 z"
           id="path738-0"
           sodipodi:nodetypes="ccccc"
           inkscape:label="Silver" /><path
           style="font-variation-settings:normal;opacity:1;vector-effect:none;fill:#a05a2c;fill-opacity:1;stroke:none;stroke-width:0.264583;stroke-linecap:butt;stroke-linejoin:miter;stroke-miterlimit:4;stroke-dasharray:none;stroke-dashoffset:0;stroke-opacity:1;-inkscape-stroke:none;stop-color:#000000;stop-opacity:1"
           d="m 58.121266,140.74958 c -0.847756,-1.46836 -0.134262,-6.63201 2.056807,-10.4213 1.723536,-2.98525 7.806513,0.19395 5.983592,3.35134 -2.186088,3.79216 -6.344885,7.06996 -8.040399,7.06996 z"
           id="path764"
           sodipodi:nodetypes="cccc"
           inkscape:label="Dark Brown" /></g></g></g></svg>
