<?xml version="1.0" encoding="UTF-8" standalone="no"?>
<!-- Created with Inkscape (http://www.inkscape.org/) -->

<svg
   width="144.72458mm"
   height="144.72458mm"
   viewBox="0 0 144.72458 144.72458"
   version="1.1"
   id="svg5"
   xml:space="preserve"
   inkscape:version="1.2 (dc2aedaf03, 2022-05-15)"
   sodipodi:docname="favicon_reversed.svg"
   inkscape:export-filename="favicon.png"
   inkscape:export-xdpi="33.700001"
   inkscape:export-ydpi="33.700001"
   xmlns:inkscape="http://www.inkscape.org/namespaces/inkscape"
   xmlns:sodipodi="http://sodipodi.sourceforge.net/DTD/sodipodi-0.dtd"
   xmlns="http://www.w3.org/2000/svg"
   xmlns:svg="http://www.w3.org/2000/svg"><sodipodi:namedview
     id="namedview7"
     pagecolor="#ffffff"
     bordercolor="#666666"
     borderopacity="1.0"
     inkscape:showpageshadow="2"
     inkscape:pageopacity="0.0"
     inkscape:pagecheckerboard="0"
     inkscape:deskcolor="#d1d1d1"
     inkscape:document-units="mm"
     showgrid="false"
     showguides="true"
     inkscape:zoom="0.5"
     inkscape:cx="229"
     inkscape:cy="332"
     inkscape:window-width="1920"
     inkscape:window-height="1046"
     inkscape:window-x="-11"
     inkscape:window-y="-11"
     inkscape:window-maximized="1"
     inkscape:current-layer="layer1" /><defs
     id="defs2" /><g
     inkscape:label="Layer 1"
     inkscape:groupmode="layer"
     id="layer1"
     transform="translate(0,-27.68644)"><rect
       style="display:none;fill:#cccccc;stroke:none;stroke-width:0.4;stroke-dasharray:0.634997, 0.634997"
       id="rect1327"
       width="144.72458"
       height="144.72458"
       x="-9.5367432e-07"
       y="27.68644"
       inkscape:label="Background" /><path
       id="path9624"
       style="fill:#ffffff;stroke:none;stroke-width:1.32292;stroke-dasharray:none;stroke-dashoffset:0;stroke-opacity:1"
       d="M 72.362508,27.68644 C 32.397748,27.686319 -1.2205564e-4,60.08419 0,100.04895 c 1.6513283e-4,39.96456 32.397951,72.36211 72.362508,72.36199 39.964352,-1.6e-4 72.361822,-32.39763 72.361992,-72.36199 1.2e-4,-39.964559 -32.39743,-72.362346 -72.361992,-72.36251 z M 45.353304,54.581956 c 3.171847,0.136084 17.049913,10.945547 10.325468,21.909257 L 70.882495,94.089105 62.746558,102.43227 47.401241,85.346486 C 34.642941,85.124324 25.972735,66.959405 32.568555,59.185293 c 2.116686,-1.752919 3.949769,9.679106 7.674983,8.966377 3.725202,-0.71272 4.403563,-0.98996 5.381067,-3.180167 0.977509,-2.190215 -2.810955,-9.977717 -0.543636,-10.368876 0.07899,-0.01818 0.170017,-0.02506 0.272335,-0.02067 z m 70.933136,1.675867 c 0.15912,0.01013 0.30415,0.03212 0.43305,0.06666 0.54968,2.051453 -1.97263,8.044952 -5.83789,11.941907 l -0.003,-0.0026 c -0.67867,0.678667 -1.53895,0.836802 -2.4846,0.644405 -0.94565,-0.192396 -1.9502,-0.759509 -2.76159,-1.519287 -0.81139,-0.759778 -1.42697,-1.708296 -1.64435,-2.617411 -0.20333,-0.850373 -0.0875,-1.646998 0.524,-2.341976 l 0.12248,-0.125574 c 3.6516,-3.656418 9.26472,-6.198048 11.65148,-6.046142 z m -13.06742,7.4998 c -0.0361,0.390759 -0.003,0.787878 0.0894,1.176156 0.26022,1.088268 0.95309,2.130738 1.84589,2.966744 0.89278,0.836006 1.98863,1.467416 3.09955,1.693437 0.40054,0.08149 0.80672,0.106341 1.20251,0.06563 L 95.076884,83.669586 c -0.530689,0.476314 -1.297156,0.598588 -2.190047,0.418062 -0.900075,-0.181977 -1.88489,-0.684943 -2.677873,-1.361157 -0.792982,-0.676212 -1.385276,-1.521097 -1.581816,-2.335774 -0.196538,-0.814678 -0.05202,-1.605769 0.710534,-2.384865 v 0 0 z M 87.557446,79.833645 c 0.0017,0.267397 0.03422,0.532438 0.09664,0.791166 0.264509,1.096417 0.991971,2.083664 1.906344,2.863391 0.914373,0.779727 2.023507,1.356754 3.129008,1.580265 0.283802,0.05738 0.570153,0.09015 0.853178,0.09508 l -16.19927,15.742973 -8.71678,8.49379 -27.423391,26.73893 c -5.685595,5.68565 -11.239046,10.30796 -12.922726,8.62429 -1.683664,-1.68369 2.939178,-7.23661 8.624797,-12.92222 l 27.183095,-27.91561 8.105707,-8.318346 z m -9.230444,22.872505 26.692948,30.89579 1.90531,2.17248 c 1.81798,2.07261 2.56335,5.23115 -0.0326,8.00829 -2.59588,2.77715 -5.43024,1.85354 -7.248136,-0.21911 l -1.905827,-2.17196 -27.58643,-30.7144 z m 24.970568,34.05529 c -1.7273,1.2e-4 -3.12781,1.42296 -3.12797,3.1781 -8e-5,1.75528 1.40051,3.17849 3.12797,3.17861 1.72747,-1.2e-4 3.12755,-1.42333 3.12746,-3.17861 -1.5e-4,-1.75514 -1.40015,-3.17798 -3.12746,-3.1781 z"
       sodipodi:nodetypes="cccccscccccsscsccccsssccsccssccsssccccccssccccscccccccscccccccccc" /></g></svg>
