<?xml version="1.0" encoding="UTF-8" standalone="no"?>
<!-- Created with Inkscape (http://www.inkscape.org/) -->

<svg
   width="5.5581646mm"
   height="5.5581646mm"
   viewBox="0 0 5.5581647 5.5581647"
   version="1.1"
   id="svg5"
   inkscape:version="1.2 (dc2aedaf03, 2022-05-15)"
   sodipodi:docname="info.svg"
   xmlns:inkscape="http://www.inkscape.org/namespaces/inkscape"
   xmlns:sodipodi="http://sodipodi.sourceforge.net/DTD/sodipodi-0.dtd"
   xmlns="http://www.w3.org/2000/svg"
   xmlns:svg="http://www.w3.org/2000/svg">
  <sodipodi:namedview
     id="namedview7"
     pagecolor="#ffffff"
     bordercolor="#666666"
     borderopacity="1.0"
     inkscape:showpageshadow="2"
     inkscape:pageopacity="0.0"
     inkscape:pagecheckerboard="0"
     inkscape:deskcolor="#d1d1d1"
     inkscape:document-units="mm"
     showgrid="false"
     inkscape:zoom="26.910886"
     inkscape:cx="8.2308698"
     inkscape:cy="11.928258"
     inkscape:window-width="1920"
     inkscape:window-height="1046"
     inkscape:window-x="-11"
     inkscape:window-y="-11"
     inkscape:window-maximized="1"
     inkscape:current-layer="layer1" />
  <defs
     id="defs2" />
  <g
     inkscape:label="Layer 1"
     inkscape:groupmode="layer"
     id="layer1"
     transform="translate(-47.163423,-78.086617)">
    <path
       d="m 49.347816,82.624318 h 1.020614 v 1.020616 h -1.020614 z m 0.09546,-0.734256 q 0,-0.249646 0.03672,-0.440552 0.03672,-0.190907 0.117483,-0.345101 0.08076,-0.161531 0.205592,-0.301044 0.12483,-0.146854 0.301045,-0.301045 0.124829,-0.110135 0.249646,-0.205592 0.13216,-0.09546 0.234962,-0.205592 0.10279,-0.110135 0.16888,-0.23496 0.06609,-0.132161 0.06609,-0.301045 0,-0.301044 -0.220277,-0.484609 -0.220277,-0.190906 -0.602089,-0.190906 -0.462581,0 -0.71957,0.279016 -0.256991,0.271676 -0.271675,0.690201 h -0.932505 q 0.0073,-0.352443 0.13216,-0.668173 0.13216,-0.323072 0.374469,-0.565377 0.249649,-0.242304 0.609433,-0.381813 0.359786,-0.146853 0.837051,-0.146853 0.411184,0 0.734256,0.110136 0.330415,0.10279 0.558035,0.301044 0.23496,0.190907 0.359784,0.455239 0.124829,0.264331 0.124829,0.580063 0,0.212933 -0.05139,0.389155 -0.05139,0.176221 -0.139507,0.323071 -0.08076,0.139507 -0.190907,0.25699 -0.110135,0.110137 -0.227618,0.205592 -0.271675,0.212934 -0.455239,0.352443 -0.183564,0.13216 -0.28636,0.25699 -0.09546,0.117483 -0.13216,0.249646 -0.02937,0.12483 -0.03672,0.323071 z"
       style="font-weight:500;font-size:4.50742px;line-height:1.25;font-family:'Neue Haas Grotesk Text Pro';-inkscape-font-specification:'Neue Haas Grotesk Text Pro Medium';text-align:end;text-anchor:end;stroke-width:0.15297"
       id="path419" />
  </g>
</svg>
