<?xml version="1.0" encoding="UTF-8" standalone="no"?>
<!-- Created with Inkscape (http://www.inkscape.org/) -->

<svg
   width="5.5581646mm"
   height="5.5581646mm"
   viewBox="0 0 5.5581647 5.5581647"
   version="1.1"
   id="svg5"
   inkscape:version="1.2 (dc2aedaf03, 2022-05-15)"
   sodipodi:docname="theme-day.svg"
   xmlns:inkscape="http://www.inkscape.org/namespaces/inkscape"
   xmlns:sodipodi="http://sodipodi.sourceforge.net/DTD/sodipodi-0.dtd"
   xmlns="http://www.w3.org/2000/svg"
   xmlns:svg="http://www.w3.org/2000/svg">
  <sodipodi:namedview
     id="namedview7"
     pagecolor="#ffffff"
     bordercolor="#666666"
     borderopacity="1.0"
     inkscape:showpageshadow="2"
     inkscape:pageopacity="0.0"
     inkscape:pagecheckerboard="0"
     inkscape:deskcolor="#d1d1d1"
     inkscape:document-units="mm"
     showgrid="false"
     inkscape:zoom="19.02887"
     inkscape:cx="-2.3385518"
     inkscape:cy="7.6200004"
     inkscape:window-width="1920"
     inkscape:window-height="1046"
     inkscape:window-x="-11"
     inkscape:window-y="-11"
     inkscape:window-maximized="1"
     inkscape:current-layer="layer1" />
  <defs
     id="defs2" />
  <g
     inkscape:label="Layer 1"
     inkscape:groupmode="layer"
     id="layer1"
     transform="translate(-47.163423,-78.086617)">
    <path
       id="path184-6"
       style="fill:#000000;stroke:none;stroke-width:0.144;fill-opacity:1"
       d="M 49.942582 78.086617 A 2.7790823 2.7790823 0 0 0 47.163423 80.865776 A 2.7790823 2.7790823 0 0 0 49.942582 83.644934 L 49.942582 78.086617 z " />
    <path
       id="path184"
       style="fill:#000000;stroke:none;stroke-width:0.144"
       d="M 49.942582 78.086617 A 2.7790823 2.7790823 0 0 0 47.163423 80.865776 A 2.7790823 2.7790823 0 0 0 49.942582 83.644934 A 2.7790823 2.7790823 0 0 0 52.72174 80.865776 A 2.7790823 2.7790823 0 0 0 49.942582 78.086617 z M 49.942582 78.538786 A 2.326818 2.326818 0 0 1 52.269055 80.865776 A 2.326818 2.326818 0 0 1 49.942582 83.192765 A 2.326818 2.326818 0 0 1 47.615592 80.865776 A 2.326818 2.326818 0 0 1 49.942582 78.538786 z " />
  </g>
</svg>
